<svg width="90" height="90" viewBox="0 0 90 90" fill="none" xmlns="http://www.w3.org/2000/svg">
<path d="M45 0C20.1466 0 0 20.1466 0 45C0 69.8534 20.1466 90 45 90C69.8534 90 90 69.8534 90 45C90 20.1466 69.8534 0 45 0ZM45 78.0241C26.7617 78.0241 11.9759 63.2383 11.9759 45C11.9759 26.7617 26.7617 11.9759 45 11.9759C63.2383 11.9759 78.0241 26.7617 78.0241 45C78.0241 63.2383 63.2383 78.0241 45 78.0241Z" fill="white"/>
<path d="M44.5763 20.0044C31.0049 20.0044 20.0044 31.0048 20.0044 44.5762C20.0044 58.1476 31.0049 69.148 44.5763 69.148C58.1476 69.148 69.1481 58.1476 69.1481 44.5762C69.1481 31.0048 58.1476 20.0044 44.5763 20.0044ZM44.5763 62.6069C34.6167 62.6069 26.5455 54.5329 26.5455 44.5762C26.5455 34.6195 34.6195 26.5455 44.5763 26.5455C54.533 26.5455 62.607 34.6195 62.607 44.5762C62.607 54.5329 54.533 62.6069 44.5763 62.6069Z" fill="white"/>
<path d="M89.2065 10.9521L73.3913 28.7837H28.4396C27.777 28.7837 27.2167 29.0425 26.7588 29.5573C26.301 30.072 26.0734 30.7034 26.0734 31.4513C26.0734 32.1993 26.301 32.8307 26.7588 33.3454C27.2167 33.8602 27.777 34.119 28.4396 34.119H61.5604C67.4275 34.119 72.4442 36.4653 76.6078 41.1606C80.7713 45.856 82.8531 51.5098 82.8531 58.122C82.8531 64.7342 80.7713 70.3909 76.6078 75.0862C72.4442 79.7816 67.4275 82.1279 61.5604 82.1279H2.37186C0.554572 82.1279 -0.409531 79.9807 0.796309 78.6213L16.6116 60.7897H61.5604C62.223 60.7897 62.7833 60.5309 63.2412 60.0161C63.699 59.5013 63.9266 58.87 63.9266 58.122C63.9266 57.3741 63.6962 56.7455 63.2412 56.2279C62.7833 55.7132 62.223 55.4544 61.5604 55.4544H28.4396C22.5725 55.4544 17.5558 53.1081 13.3922 48.4127C9.22865 43.7174 7.14687 38.0636 7.14687 31.4485C7.14687 24.8335 9.22865 19.1797 13.3922 14.4843C17.5558 9.7889 22.5725 7.44263 28.4396 7.44263H87.6281C89.4454 7.44263 90.4095 9.58982 89.2037 10.9492L89.2065 10.9521Z" fill="#F15A29"/>
</svg>
